<svg width="100" height="100" viewBox="0 0 100 100" fill="none" xmlns="http://www.w3.org/2000/svg">
<path d="M95.1601 87.4399C95.1601 94.2399 89.6401 99.9799 82.8401 99.9799C82.4201 99.9799 81.7801 99.9799 81.3601 99.9799C74.9801 99.1199 70.3001 93.3999 70.5201 87.0199V13.0599C70.3001 6.67992 74.9801 1.15992 81.3601 0.0999246C88.1601 -0.760075 94.3201 4.13992 95.1801 10.9399C95.1801 11.3599 95.1801 11.9999 95.1801 12.4199V87.4399H95.1601Z" fill="#F9AB00"/>
<path d="M17.1601 75.3397C23.9601 75.3397 29.4801 80.8597 29.4801 87.6597C29.4801 94.4597 23.9601 99.9797 17.1601 99.9797C10.3601 99.9797 4.84011 94.4597 4.84011 87.6597C4.62011 80.8597 10.3601 75.3397 17.1601 75.3397ZM49.6801 37.7197C42.8801 38.1397 37.5601 43.8797 37.5601 50.6797V84.0397C37.5601 92.9597 41.6001 98.4997 47.3401 99.7597C54.1401 101.04 60.5201 96.7797 62.0001 89.9797C62.2201 89.1197 62.2201 88.2797 62.2201 87.4197V50.2197C62.2201 43.4197 56.7001 37.6797 49.9001 37.6797H49.6801V37.7197Z" fill="#E37400"/>
</svg>
