<svg width="182" height="182" viewBox="0 0 182 182" fill="none" xmlns="http://www.w3.org/2000/svg">
<circle cx="91" cy="91" r="91" fill="url(#paint0_linear_518_22)"/>
<path d="M43.85 104.5L18.85 93.85V84.7L43.85 74.05V84.7L27.75 89.25L43.85 93.85V104.5ZM138.028 74.05L163.028 84.7V93.85L138.028 104.5V93.85L154.128 89.3L138.028 84.7V74.05Z" fill="#F2F2F2"/>
<path d="M77.0758 71V90.4C77.0758 94.8667 75.7424 98.3333 73.0758 100.8C70.4091 103.267 66.5591 104.5 61.5258 104.5C57.8258 104.5 54.8591 103.85 52.6258 102.55C50.4258 101.25 48.9091 99.4667 48.0758 97.2C47.2758 94.9333 47.0924 92.3667 47.5258 89.5L59.0758 87.55C58.6424 90.6833 58.6924 92.8333 59.2258 94C59.7924 95.1667 60.7591 95.75 62.1258 95.75C63.2591 95.75 64.0924 95.2667 64.6258 94.3C65.1591 93.3333 65.4258 91.75 65.4258 89.55V71H77.0758ZM95.7918 70.5C98.9585 70.5 101.792 70.9 104.292 71.7C106.825 72.4667 109.058 73.6333 110.992 75.2L106.292 82.7C104.725 81.6 103.075 80.7167 101.342 80.05C99.6418 79.3833 97.7918 79.05 95.7918 79.05C94.9251 79.05 94.2251 79.1167 93.6918 79.25C93.1918 79.3833 92.8251 79.5667 92.5918 79.8C92.3918 80.0333 92.2918 80.3 92.2918 80.6C92.2918 81 92.5918 81.3 93.1918 81.5C93.8251 81.7 94.6085 81.9167 95.5418 82.15L100.092 83.2C103.458 83.9667 105.992 85.1 107.692 86.6C109.425 88.1 110.292 90.1833 110.292 92.85C110.292 95.5167 109.642 97.7167 108.342 99.45C107.042 101.15 105.275 102.417 103.042 103.25C100.842 104.083 98.3418 104.5 95.5418 104.5C93.4418 104.5 91.3418 104.317 89.2418 103.95C87.1418 103.55 85.1918 102.983 83.3918 102.25C81.5918 101.483 80.0418 100.567 78.7418 99.5L83.3418 91.85C84.3085 92.6167 85.4751 93.3167 86.8418 93.95C88.2085 94.55 89.6251 95.0333 91.0918 95.4C92.5585 95.7667 93.9251 95.95 95.1918 95.95C95.9918 95.95 96.6251 95.8833 97.0918 95.75C97.5585 95.6167 97.8751 95.45 98.0418 95.25C98.2418 95.0167 98.3418 94.75 98.3418 94.45C98.3418 93.9833 98.1418 93.6333 97.7418 93.4C97.3751 93.1667 96.6918 92.9333 95.6918 92.7L90.6918 91.6C88.9251 91.2 87.2418 90.6667 85.6418 90C84.0418 89.3333 82.7418 88.3667 81.7418 87.1C80.7418 85.8 80.2418 84.05 80.2418 81.85C80.2418 79.5833 80.8418 77.6 82.0418 75.9C83.2751 74.2 85.0418 72.8833 87.3418 71.95C89.6751 70.9833 92.4918 70.5 95.7918 70.5Z" fill="#FFD866"/>
<path d="M135.364 69L122.214 107.5H111.564L124.714 69H135.364Z" fill="#91F2DF"/>
<defs>
<linearGradient id="paint0_linear_518_22" x1="165.127" y1="169.627" x2="-14.5072" y2="112.062" gradientUnits="userSpaceOnUse">
<stop offset="0.0544412" stop-color="#162127"/>
<stop offset="0.780384" stop-color="#152A35"/>
</linearGradient>
</defs>
</svg>
