<svg width="100" height="98" viewBox="0 0 100 98" fill="none" xmlns="http://www.w3.org/2000/svg">
<g clip-path="url(#clip0_625_183)">
<path d="M17.7067 0H82.2933C92.0827 0 100 7.91732 100 17.7067V79.7972C100 89.5866 92.0827 97.5039 82.2933 97.5039H17.7067C7.91732 97.5039 0 89.5866 0 79.7972V17.7067C0 7.91732 7.91732 0 17.7067 0Z" fill="#001E36"/>
<path d="M52.4959 68.9159H26.0918C25.6238 68.9159 25.4288 68.6819 25.4288 68.1748V25.5851C25.3898 25.3121 25.5848 25.0391 25.8968 25.0001C25.9358 25.0001 25.9748 25.0001 26.0528 25.0001H34.2041C34.3991 24.9611 34.6721 25.1171 34.6721 25.3511C34.6721 25.3901 34.6721 25.4291 34.6721 25.4681V60.4525H53.9389C54.3679 60.4525 54.4849 60.6475 54.4069 61.0376L53.1979 68.2919C53.1979 68.4869 53.0809 68.6819 52.9639 68.7989C52.8079 68.8769 52.6519 68.9159 52.4959 68.9159Z" fill="#31A8FF"/>
<path d="M59.1649 35.5693H66.4582C66.8873 35.5693 67.1993 35.8423 67.3163 36.2323C67.4723 36.5053 67.5893 36.8563 67.6673 37.2073C67.7453 37.6364 67.8233 38.0654 67.8623 38.4944C67.9013 38.9624 67.9403 39.4694 67.9403 39.9765C69.1883 38.5334 70.7094 37.3243 72.3865 36.3883C74.2976 35.3353 76.4426 34.8282 78.5877 34.9062C78.8607 34.8672 79.1338 35.0623 79.1728 35.3743C79.1728 35.4133 79.1728 35.4523 79.1728 35.5303V43.6816C79.1728 44.0326 78.9777 44.1496 78.5097 44.1496C75.8186 43.9936 73.0885 44.5006 70.6314 45.5537C69.8124 45.9437 68.9933 46.4117 68.3693 47.1137V68.3696C68.3693 68.7986 68.2133 68.9546 67.8233 68.9546H59.711C59.36 68.9936 59.0869 68.7986 59.0479 68.4476C59.0479 68.4086 59.0479 68.3306 59.0479 68.2916V45.2027C59.0479 44.1886 59.0479 43.1746 59.0089 42.0825C58.9699 40.9905 58.9699 39.8984 58.9309 38.8454C58.8919 37.9094 58.8139 37.0123 58.6969 36.0763C58.6579 35.8813 58.7749 35.6473 58.9699 35.6083C59.0479 35.5303 59.0869 35.5303 59.1649 35.5693Z" fill="#31A8FF"/>
</g>
<defs>
<clipPath id="clip0_625_183">
<rect width="100" height="97.5039" fill="white"/>
</clipPath>
</defs>
</svg>
