<svg width="100" height="107" viewBox="0 0 100 107" fill="none" xmlns="http://www.w3.org/2000/svg">
<path d="M75.2407 50.1596C75.9724 50.0651 76.7041 50.0651 77.4358 50.1596C77.837 49.2627 77.9078 47.6813 77.5538 46.0055C77.0345 43.48 76.3028 41.9458 74.8395 42.1818C73.3761 42.4179 73.3053 44.2589 73.8481 46.7844C74.1078 48.1769 74.6506 49.4043 75.2407 50.1596ZM62.566 52.1658C63.6282 52.6378 64.2654 52.9447 64.5251 52.6615C64.9735 52.213 63.699 50.4428 61.6691 49.5695C59.2616 48.5782 56.5237 48.9086 54.4231 50.4428C53.715 50.9621 53.0541 51.6701 53.1485 52.1186C53.3609 52.9919 55.5088 51.4813 58.5064 51.2925C60.1349 51.1745 61.5039 51.6937 62.566 52.1658ZM60.4418 53.3695C58.2939 53.7 56.9014 54.9037 57.2554 55.7534C57.4678 55.8242 57.5386 55.9422 58.4827 55.5646C59.8989 55.0217 61.4095 54.8801 62.9201 55.0925C63.6046 55.1633 63.935 55.2105 64.1002 54.9745C64.407 54.4789 62.7312 53.1099 60.4418 53.3695ZM73.2345 57.4292C74.037 55.8006 70.6618 54.1248 69.8593 55.777C69.0568 57.4056 72.4556 59.0578 73.2345 57.4292ZM76.9401 52.5906C75.1227 52.567 75.0519 56.3199 76.8693 56.3671C78.7103 56.3671 78.7811 52.6142 76.9401 52.5906ZM25.2029 71.2368C24.896 71.3076 23.7867 71.5909 23.1966 70.6704C21.9693 68.7821 25.8165 65.8554 23.9047 62.197C21.7569 58.0665 17.3195 58.987 15.6201 60.8752C13.5667 63.1411 13.5667 66.4455 14.44 66.5635C15.4549 66.7051 15.4077 65.0293 16.1866 63.802C17.1071 62.3858 18.9717 61.9845 20.3879 62.9051C20.3879 62.9051 20.4115 62.9051 20.4115 62.9287C23.1494 64.7225 20.7419 67.1299 20.9544 69.7026C21.2848 73.6443 25.3209 73.5735 26.0526 71.8269C26.147 71.6617 26.1234 71.4256 26.0054 71.284C26.0054 71.5437 26.147 71.0244 25.2029 71.2368ZM96.1055 67.2008C95.3031 64.4156 95.4919 65.0293 94.5006 62.3386C95.0906 61.4653 98.1118 56.6503 93.7689 52.1186C91.3142 49.5459 85.7439 48.2005 84.0445 47.7285C83.6905 45.0378 85.1539 33.8501 78.9463 28.091C83.8557 22.9928 86.9241 17.3753 86.9241 12.5604C86.9005 3.30808 75.5239 0.499358 61.5039 6.30564L58.53 7.55658C58.5064 7.53298 53.1485 2.29317 53.0777 2.22236C37.1223 -11.7033 -12.8684 43.834 3.11068 57.3348L6.60389 60.2851C5.65978 62.8106 5.32934 65.525 5.63617 68.2157C6.43867 76.1226 14.1568 82.5189 21.6152 82.4953C35.2812 113.981 84.9887 114.029 97.8522 83.2034C98.2534 82.1413 100 77.3735 100 73.1723C100 68.971 97.6161 67.2008 96.1055 67.2008ZM21.332 78.6009C15.927 78.4593 10.0971 73.5971 9.53063 67.838C8.06726 53.3459 27.0911 50.0416 29.4042 64.9113C30.4899 71.9213 28.2948 78.7425 21.332 78.6009ZM16.9655 51.5757C13.3779 52.2838 10.2151 54.3136 8.27968 57.1224C7.12315 56.1547 4.9753 54.29 4.59765 53.582C1.52929 47.7049 7.97285 36.3047 12.481 29.8848C23.6215 13.9765 41.0639 1.93913 49.1597 4.11058C50.4814 4.48822 54.8243 9.51561 54.8243 9.51561C54.8243 9.51561 46.7522 14.0001 39.2701 20.2549C29.1445 28.0438 21.5208 39.3259 16.9655 51.5757ZM73.4705 75.5089C73.4705 75.5089 65.0207 76.7599 57.0194 73.8331C58.4828 69.0654 63.4157 75.2729 79.8196 70.5759C83.4309 69.5374 88.175 67.5076 91.8807 64.5809C92.6831 66.4219 93.2496 68.3573 93.5564 70.3163C94.4298 70.1511 96.9316 70.1983 96.2708 74.5884C95.4919 79.2854 93.4856 83.109 90.134 86.6258C88.0334 88.8917 85.5315 90.7799 82.77 92.1489C81.2358 92.9514 79.6072 93.6358 77.955 94.1787C65.3039 98.3092 52.346 93.7775 48.1447 84.0059C47.8143 83.2506 47.5311 82.4953 47.295 81.6929C45.5248 75.2493 47.0354 67.5312 51.756 62.669C52.0392 62.3622 52.346 61.9845 52.346 61.5361C52.2988 61.1348 52.1572 60.7572 51.8976 60.4504C50.2454 58.0429 44.5099 53.9596 45.6665 46.0527C46.4926 40.3644 51.4491 36.3756 56.0989 36.6116L57.279 36.6824C59.2852 36.8004 61.0319 37.06 62.684 37.1308C65.4456 37.2489 67.9475 36.8476 70.8742 34.3929C71.8655 33.5668 72.668 32.8351 74.0134 32.6227C75.1227 32.3395 76.2792 32.5519 77.2233 33.142C79.5836 34.7234 79.9141 38.5234 80.0321 41.3085C80.1029 42.8899 80.2917 46.7608 80.3625 47.8465C80.5041 50.372 81.165 50.726 82.5104 51.1509C83.2656 51.4105 83.9737 51.5757 84.9887 51.8826C88.1042 52.7559 89.9452 53.6528 91.149 54.7857C91.7626 55.3758 92.1403 56.1547 92.2819 56.9808C92.6595 59.6715 90.2049 62.9995 83.6905 65.997C72.6444 71.1188 61.5275 69.4194 59.9225 69.2306C55.1548 68.5933 52.4404 74.7536 55.2964 78.9549C60.6542 86.8619 84.257 83.6755 91.1018 73.9039C91.267 73.6679 91.1254 73.5263 90.9365 73.6679C81.047 80.4183 67.9711 82.7078 60.5362 79.8282C59.4033 79.3798 57.043 78.2941 56.7598 75.8866C67.0742 79.0729 73.5649 76.0518 73.5649 76.0518C73.5649 76.0518 74.0842 75.4381 73.4705 75.5089ZM37.5471 29.814C41.5124 25.2351 46.3745 21.2462 50.7647 19.0275C50.8355 18.9803 50.9535 19.0039 51.0007 19.0983C51.0243 19.1455 51.0243 19.2163 51.0007 19.2636C50.6466 19.9008 49.9858 21.2462 49.7733 22.2611C49.7497 22.3555 49.8205 22.4499 49.915 22.4735C49.9622 22.4971 50.0094 22.4735 50.0566 22.4499C52.7709 20.6089 57.515 18.6027 61.6455 18.3666C61.7399 18.3666 61.8343 18.4375 61.8343 18.5319C61.8343 18.6027 61.8107 18.6499 61.7635 18.6971C61.0791 19.2163 60.4654 19.83 59.9461 20.5381C59.8989 20.6089 59.8989 20.7269 59.9933 20.7741C60.0169 20.7977 60.0641 20.7977 60.0877 20.7977C62.9909 20.8213 67.0978 21.8363 69.7885 23.3468C69.9773 23.4412 69.8357 23.7953 69.6469 23.7481C53.1957 19.9716 40.521 28.1382 37.8303 30.0972C37.7359 30.1444 37.6415 30.1208 37.5707 30.05C37.4999 29.9556 37.4999 29.8612 37.5471 29.814Z" fill="black"/>
</svg>
