<svg width="142" height="58" viewBox="0 0 142 58" fill="none" xmlns="http://www.w3.org/2000/svg">
<path d="M25.065 42.45L2.565 32.865V24.63L25.065 15.045V24.63L10.575 28.725L25.065 32.865V42.45ZM109.825 15.045L132.325 24.63V32.865L109.825 42.45V32.865L124.315 28.77L109.825 24.63V15.045Z" fill="#F2F2F2"/>
<path d="M54.9682 12.3V29.76C54.9682 33.78 53.7682 36.9 51.3682 39.12C48.9682 41.34 45.5032 42.45 40.9732 42.45C37.6432 42.45 34.9732 41.865 32.9632 40.695C30.9832 39.525 29.6182 37.92 28.8682 35.88C28.1482 33.84 27.9832 31.53 28.3732 28.95L38.7682 27.195C38.3782 30.015 38.4232 31.95 38.9032 33C39.4132 34.05 40.2832 34.575 41.5132 34.575C42.5332 34.575 43.2832 34.14 43.7632 33.27C44.2432 32.4 44.4832 30.975 44.4832 28.995V12.3H54.9682ZM71.8126 11.85C77.4226 11.85 81.9826 13.26 85.4926 16.08L81.2626 22.83C79.8526 21.84 78.3676 21.045 76.8076 20.445C75.2776 19.845 73.6126 19.545 71.8126 19.545C70.6426 19.545 69.8176 19.68 69.3376 19.95C68.8876 20.19 68.6626 20.52 68.6626 20.94C68.6626 21.3 68.9326 21.57 69.4726 21.75C70.0426 21.93 70.7476 22.125 71.5876 22.335L75.6826 23.28C78.7126 23.97 80.9926 24.99 82.5226 26.34C84.0826 27.69 84.8626 29.565 84.8626 31.965C84.8626 34.365 84.2776 36.345 83.1076 37.905C81.9376 39.435 80.3476 40.575 78.3376 41.325C76.3576 42.075 74.1076 42.45 71.5876 42.45C69.6976 42.45 67.8076 42.285 65.9176 41.955C64.0276 41.595 62.2726 41.085 60.6526 40.425C59.0326 39.735 57.6376 38.91 56.4676 37.95L60.6076 31.065C61.4776 31.755 62.5276 32.385 63.7576 32.955C64.9876 33.495 66.2626 33.93 67.5826 34.26C68.9026 34.59 70.1326 34.755 71.2726 34.755C72.3526 34.755 73.0876 34.635 73.4776 34.395C73.8976 34.125 74.1076 33.795 74.1076 33.405C74.1076 32.985 73.9276 32.67 73.5676 32.46C73.2376 32.25 72.6226 32.04 71.7226 31.83L67.2226 30.84C65.6326 30.48 64.1176 30 62.6776 29.4C61.2376 28.8 60.0676 27.93 59.1676 26.79C58.2676 25.62 57.8176 24.045 57.8176 22.065C57.8176 20.025 58.3576 18.24 59.4376 16.71C60.5476 15.18 62.1376 13.995 64.2076 13.155C66.3076 12.285 68.8426 11.85 71.8126 11.85Z" fill="#FFD866"/>
<path d="M107.427 10.5L95.5923 45.15H86.0073L97.8423 10.5H107.427Z" fill="#91F2DF"/>
</svg>
