<svg width="43" height="43" viewBox="0 0 43 43" fill="none" xmlns="http://www.w3.org/2000/svg">
<path d="M32.7875 10.2304C32.4528 9.89494 31.9983 9.70639 31.5244 9.70639C31.0505 9.70639 30.596 9.89494 30.2613 10.2304L21.5 18.9738L12.7388 10.2125C12.404 9.87702 11.9496 9.68848 11.4757 9.68848C11.0017 9.68848 10.5473 9.87702 10.2125 10.2125C9.51379 10.9113 9.51379 12.04 10.2125 12.7388L18.9738 21.5L10.2125 30.2613C9.51379 30.96 9.51379 32.0888 10.2125 32.7875C10.9113 33.4863 12.04 33.4863 12.7388 32.7875L21.5 24.0263L30.2613 32.7875C30.96 33.4863 32.0888 33.4863 32.7875 32.7875C33.4863 32.0888 33.4863 30.96 32.7875 30.2613L24.0263 21.5L32.7875 12.7388C33.4684 12.0579 33.4684 10.9113 32.7875 10.2304Z" fill="#F2F2F2"/>
</svg>
