<svg width="100" height="98" viewBox="0 0 100 98" fill="none" xmlns="http://www.w3.org/2000/svg">
<path d="M17.7093 0H82.2907C92.0743 0 100 7.92568 100 17.7093V79.7978C100 89.5814 92.0743 97.5071 82.2907 97.5071H17.7093C7.92568 97.5071 0 89.5814 0 79.7978V17.7093C0 7.92568 7.92568 0 17.7093 0Z" fill="#001E36"/>
<path d="M22.5059 68.3667V25.4927C22.5059 25.2105 22.6234 25.0459 22.9292 25.0459C23.6347 25.0459 24.2933 25.0459 25.2575 24.9989C26.2688 24.9518 27.3036 24.9518 28.4325 24.9048C29.5614 24.8577 30.7608 24.8577 32.0543 24.8107C33.3478 24.7637 34.5943 24.7637 35.8408 24.7637C39.2509 24.7637 42.0966 25.187 44.425 26.0572C46.5181 26.7627 48.4231 27.9386 49.9988 29.4673C51.3394 30.8079 52.3742 32.4307 53.0327 34.218C53.6677 35.9584 53.9969 37.7693 53.9969 39.6273C53.9969 43.202 53.1738 46.1654 51.504 48.4937C49.8342 50.822 47.5059 52.5859 44.8013 53.5736C41.979 54.6084 38.8511 54.9847 35.4174 54.9847C34.4061 54.9847 33.7476 54.9847 33.3243 54.9377C32.901 54.8907 32.313 54.8907 31.5369 54.8907V68.2726C31.5839 68.5548 31.3723 68.8135 31.0901 68.8606C31.043 68.8606 30.996 68.8606 30.9254 68.8606H22.9997C22.6705 68.9076 22.5059 68.743 22.5059 68.3667ZM31.5839 33.0892V47.0826C32.1719 47.1296 32.7128 47.1767 33.2067 47.1767H35.4174C37.0402 47.1767 38.663 46.9179 40.2152 46.4241C41.5557 46.0478 42.7081 45.2481 43.6253 44.2133C44.4955 43.1785 44.9188 41.7439 44.9188 39.933C44.9659 38.6395 44.6366 37.346 43.9546 36.2171C43.249 35.1353 42.2378 34.3121 41.0383 33.8418C39.4861 33.2068 37.8398 32.9716 36.123 33.0186C35.0411 33.0186 34.0769 33.0186 33.3008 33.0656C32.4541 32.9951 31.8662 33.0421 31.5839 33.0892Z" fill="#31A8FF"/>
<path d="M80.0082 44.5422C78.7617 43.8837 77.4212 43.4133 76.0101 43.1311C74.4579 42.8018 72.9292 42.5902 71.3534 42.5902C70.5303 42.5431 69.6366 42.6842 68.8605 42.8724C68.3196 42.99 67.8492 43.2957 67.567 43.6955C67.3553 44.0248 67.2377 44.4481 67.2377 44.8244C67.2377 45.2007 67.4024 45.577 67.6611 45.9062C68.0374 46.3531 68.5312 46.7294 69.0722 47.0351C70.0364 47.529 71.0242 47.9994 72.0355 48.3992C74.2932 49.1518 76.4569 50.1866 78.456 51.4331C79.8201 52.3032 80.9489 53.4792 81.7486 54.8903C82.4071 56.2308 82.7598 57.6889 82.7128 59.1706C82.7598 61.1226 82.1719 63.0982 81.09 64.7209C79.9141 66.3907 78.2914 67.6842 76.4334 68.4368C74.3873 69.307 71.8944 69.7774 68.884 69.7774C66.979 69.7774 65.0976 69.6127 63.2161 69.2365C61.758 68.9778 60.2998 68.5309 58.9593 67.8959C58.677 67.7313 58.4654 67.4491 58.5124 67.0963V59.8526C58.5124 59.735 58.5595 59.5704 58.677 59.4763C58.7946 59.3823 58.9357 59.4293 59.0533 59.5234C60.6761 60.4876 62.3929 61.1461 64.2274 61.5695C65.8031 61.9928 67.4729 62.2045 69.1427 62.2045C70.7184 62.2045 71.8473 61.9928 72.5999 61.6165C73.2584 61.3343 73.7288 60.6052 73.7288 59.8761C73.7288 59.2882 73.3995 58.7473 72.7175 58.2063C72.059 57.6654 70.6714 57.0304 68.6253 56.2543C66.5087 55.5017 64.5331 54.514 62.6987 53.244C61.4052 52.3268 60.3233 51.1273 59.5237 49.6927C58.8652 48.3522 58.5124 46.894 58.5595 45.4359C58.5595 43.6485 59.0533 41.9316 59.9706 40.403C61.0054 38.7332 62.5576 37.3926 64.345 36.5695C66.297 35.5582 68.7664 35.1113 71.7297 35.1113C73.4466 35.1113 75.1869 35.2289 76.9038 35.4876C78.1502 35.6523 79.3732 35.9815 80.4786 36.4519C80.6432 36.4989 80.8078 36.6635 80.9019 36.8282C80.9489 36.9928 80.996 37.1574 80.996 37.3221V44.1189C80.996 44.2835 80.9019 44.4481 80.7843 44.5422C80.3845 44.6363 80.1728 44.6363 80.0082 44.5422Z" fill="#31A8FF"/>
</svg>
